<?xml version="1.0" encoding="utf-8"?>
<!-- Generator: Adobe Illustrator 23.1.1, SVG Export Plug-In . SVG Version: 6.00 Build 0)  -->
<svg version="1.1" id="Layer_1" xmlns="http://www.w3.org/2000/svg" xmlns:xlink="http://www.w3.org/1999/xlink" x="0px" y="0px"
	 viewBox="0 0 1022.69 288.69" style="enable-background:new 0 0 1022.69 288.69;" xml:space="preserve">
<style type="text/css">
	.st0{fill:#FFFFFF;}
</style>
<path class="st0" d="M296.48,107.32l-37.98-65.78C243.71,15.92,216.14,0,186.55,0h-65.52C90.99,0,64.09,15.53,49.08,41.54
	L11.1,107.32c-14.79,25.62-14.79,57.46,0,83.09l32.74,56.69c0.01,0.01,0.01,0.02,0.02,0.04c0,0,0,0.01,0.01,0.01
	c15.01,26.02,41.91,41.55,71.95,41.55h75.96c29.59,0,57.16-15.92,71.95-41.54l32.58-56.43l0,0c0.03-0.05,0.06-0.09,0.09-0.14
	C311.51,164.54,311.54,133.41,296.48,107.32z M24.63,115.14l37.98-65.78c12.19-21.12,34.03-33.73,58.41-33.73
	c24.34,0,46.15,12.57,58.35,33.6l54.43,94.27c1.69,2.94,1.91,6.37,0.63,9.43c-0.18,0.44-0.39,0.87-0.64,1.29
	c-1.94,3.35-5.4,5.35-9.27,5.35h-35.96c0.46-1.74,0.7-3.54,0.7-5.36c0-3.66-0.97-7.28-2.8-10.47l-42.63-73.83
	c-1.22-2.11-2.71-4.04-4.38-5.67c-0.21-0.21-0.43-0.42-0.65-0.63l-0.69-0.61c-0.86-0.74-1.8-1.44-2.79-2.08
	c-0.74-0.48-1.49-0.91-2.24-1.3c-0.5-0.26-1.01-0.5-1.53-0.73c-3.35-1.45-6.94-2.17-10.52-2.17c-1.79,0-3.59,0.18-5.35,0.54
	c-1.76,0.36-3.49,0.9-5.15,1.62c-0.52,0.22-1.02,0.46-1.58,0.75c-0.77,0.39-1.52,0.83-2.22,1.29c-1,0.65-1.94,1.35-2.82,2.11
	l-1.26,1.15c-1.72,1.68-3.21,3.61-4.43,5.73l-54.36,94.14c-0.86,1.49-1.65,3-2.42,4.51c-0.24,0.48-0.46,0.96-0.69,1.45
	c-0.51,1.06-1,2.13-1.46,3.21c-0.23,0.54-0.46,1.09-0.68,1.64c-0.44,1.08-0.84,2.17-1.23,3.26c-0.18,0.5-0.36,0.99-0.53,1.5
	c-0.51,1.51-0.98,3.03-1.39,4.57c-0.02,0.06-0.04,0.13-0.06,0.19c-0.43,1.6-0.8,3.2-1.13,4.81c-0.1,0.5-0.18,0.99-0.28,1.49
	c-0.21,1.14-0.4,2.27-0.57,3.41c-0.08,0.57-0.15,1.14-0.22,1.71c-0.05,0.45-0.13,0.89-0.18,1.33l-8.4-14.55
	C12.62,161.79,12.62,135.94,24.63,115.14z M134.64,151.58l14.51-25.13l0.01-0.02c0.46-0.8,1.13-1.46,1.94-1.93
	c0.82-0.47,1.88-0.68,2.7-0.72c1.88,0,3.65,1.01,4.6,2.63l14.57,25.24c0.43,0.79,0.66,1.68,0.66,2.57c0,0.93-0.25,1.85-0.71,2.67
	c-0.95,1.66-2.73,2.69-4.65,2.69h-28.97c-0.94,0-1.86-0.25-2.69-0.72c-0.8-0.46-1.48-1.13-1.95-1.95
	C133.72,155.28,133.71,153.24,134.64,151.58L134.64,151.58z M250.18,239.34c-12.01,20.8-34.39,33.72-58.41,33.72h-75.96
	c-24.39,0-46.23-12.61-58.41-33.73l0-0.01c-0.76-1.32-1.48-2.65-2.14-4c-0.46-0.93-0.86-1.87-1.28-2.81
	c-0.19-0.43-0.4-0.85-0.58-1.28c-8-19.26-6.67-40.88,4-59.35l54.36-94.15c0.51-0.89,1.13-1.68,1.8-2.35l0.57-0.52
	c0.35-0.3,0.72-0.57,1.13-0.83c0.27-0.18,0.56-0.34,0.79-0.46c0.21-0.11,0.41-0.21,0.66-0.32c0.69-0.3,1.4-0.52,2.12-0.67
	c0.31-0.06,0.62-0.06,0.93-0.09c0.42-0.05,0.84-0.13,1.27-0.13c0.42,0,0.84,0.08,1.26,0.13c0.31,0.04,0.63,0.03,0.93,0.09
	c0.72,0.15,1.43,0.37,2.12,0.67c0.21,0.09,0.42,0.19,0.64,0.31c0.29,0.15,0.57,0.31,0.86,0.5c0.37,0.24,0.74,0.51,1.11,0.82
	l0.51,0.47c0.71,0.69,1.32,1.49,1.84,2.38l17.98,31.14c-1.75,0.47-3.43,1.18-5.01,2.09c-3.17,1.84-5.81,4.47-7.54,7.46L93,192.44
	c-1.79,3.09-2.9,6.41-3.35,9.79c-0.74,5.62,0.37,11.4,3.35,16.56c3.57,6.18,9.26,10.5,15.9,12.27c2.21,0.59,4.53,0.9,6.91,0.9
	h108.71c1.71,0,3.41-0.06,5.1-0.16c0.53-0.03,1.05-0.08,1.58-0.12c1.18-0.09,2.35-0.2,3.51-0.34c0.58-0.07,1.16-0.15,1.75-0.23
	c1.15-0.16,2.3-0.35,3.44-0.56c0.51-0.09,1.02-0.18,1.53-0.28c1.54-0.31,3.07-0.66,4.59-1.06c0.08-0.02,0.16-0.04,0.23-0.06
	c1.63-0.43,3.24-0.93,4.84-1.46c0.35-0.12,0.7-0.25,1.05-0.37c1.24-0.43,2.47-0.89,3.68-1.38c0.41-0.16,0.81-0.33,1.22-0.5
	c0.52-0.22,1.04-0.42,1.55-0.64L250.18,239.34z M224.53,216.32H115.82c-3.87,0-7.34-2-9.28-5.36c-0.24-0.42-0.45-0.85-0.64-1.29
	c-0.55-1.31-0.82-2.69-0.82-4.07c0-1.84,0.48-3.68,1.45-5.35l17.98-31.13c1.29,1.28,2.75,2.39,4.33,3.3
	c3.18,1.83,6.8,2.79,10.46,2.79h28.97h56.26c9.52,0,18.05-4.92,22.81-13.17c1.19-2.06,2.08-4.22,2.68-6.44
	c1.79-6.64,0.9-13.72-2.67-19.91l-54.43-94.29c-0.86-1.48-1.77-2.92-2.7-4.33c-0.29-0.45-0.6-0.88-0.91-1.32
	c-0.67-0.97-1.35-1.92-2.05-2.86c-0.36-0.47-0.72-0.94-1.08-1.41c-0.72-0.91-1.45-1.8-2.2-2.68c-0.35-0.4-0.68-0.81-1.03-1.21
	c-1.08-1.22-2.19-2.41-3.33-3.55c-0.04-0.04-0.08-0.08-0.12-0.12c-1.14-1.14-2.33-2.24-3.53-3.3c-0.39-0.35-0.79-0.68-1.19-1.02
	c-0.87-0.74-1.74-1.46-2.63-2.16c-0.45-0.36-0.91-0.71-1.37-1.05c-0.34-0.26-0.67-0.53-1.01-0.78h16.8
	c24.02,0,46.4,12.92,58.41,33.73l37.98,65.78h0c12.23,21.18,12.2,46.45-0.16,67.73C270.56,203.82,248.79,216.32,224.53,216.32z"/>
<g>
	<path class="st0" d="M436.9,95.92h-15.06l-6.3,35.74h-24.63l17.67-100.2h39.68c22.23,0,31.42,15.76,28.51,32.23
		S459.14,95.92,436.9,95.92z M443.25,53.56h-13.93l-3.57,20.26h13.93c6.75,0,11.56-4.93,12.48-10.13
		C453.07,58.49,450,53.56,443.25,53.56z"/>
	<path class="st0" d="M528.12,131.66l-2.01-14.92h-30.82l-7.56,14.92h-25.75l54.11-100.2h19l18.78,100.2H528.12z M519.53,69.46
		L505.81,96.2h17.45L519.53,69.46z"/>
	<path class="st0" d="M614.66,131.66l-11.16-37.29h-8.3l-6.58,37.29H564l17.67-100.2h39.68c22.23,0,31.42,15.76,28.51,32.23
		c-2.41,13.65-12.36,22.23-20.94,26.17l14.3,41.8H614.66z M616.33,53.56H602.4l-3.57,20.26h13.93c6.75,0,11.56-4.93,12.48-10.13
		C626.16,58.49,623.09,53.56,616.33,53.56z"/>
	<path class="st0" d="M711.76,131.66l-2.01-14.92h-30.82l-7.56,14.92h-25.75l54.11-100.2h19l18.78,100.2H711.76z M703.17,69.46
		L689.45,96.2h17.45L703.17,69.46z"/>
	<path class="st0" d="M813.55,121.81c-8.11,6.9-18.34,9.85-28.76,9.85h-37.15l17.67-100.2h37.15c10.41,0,19.6,2.96,25.28,9.85
		c9.62,11.68,6.1,24.49,3.32,40.25S827.29,110.13,813.55,121.81z M807.73,59.05c-1.66-3.38-4.64-5.63-10.83-5.63h-10.84l-9.93,56.29
		h10.84c6.19,0,9.97-2.25,12.81-5.63c2.47-2.82,3.64-5.49,6.64-22.52C809.41,64.68,809.2,61.86,807.73,59.05z"/>
	<path class="st0" d="M903.99,121.25c-8.61,7.32-17.75,11.26-29.99,11.26c-12.24,0-19.99-3.94-26.02-11.26
		c-8.69-10.55-5.79-24.63-3.13-39.68c2.66-15.06,4.71-29.13,17.13-39.69c8.61-7.32,17.75-11.26,29.99-11.26
		c12.24,0,19.99,3.94,26.02,11.26c8.69,10.55,5.79,24.63,3.13,39.69C918.46,96.62,916.41,110.69,903.99,121.25z M897.18,56.94
		c-1.41-2.39-4.58-4.36-9.08-4.36c-4.5,0-8.37,1.97-10.62,4.36c-2.77,2.96-4.78,6.33-8,24.63c-3.23,18.29-2.39,21.53-0.66,24.48
		c1.41,2.39,4.55,4.5,9.06,4.5s8.39-2.11,10.65-4.5c2.77-2.96,4.75-6.19,7.98-24.48C899.72,63.27,898.91,59.89,897.18,56.94z"/>
	<path class="st0" d="M978.85,131.66l-11.03-30.82l-21.9,30.82h-28.14l40.3-51.36l-20.66-48.83h28l9.65,28.29l19.62-28.29h28
		L984.81,80.3l22.18,51.36H978.85z"/>
	<path class="st0" d="M433.98,249.78c-10.15,8.87-20.14,11.26-31.12,11.26c-11.68,0-19.85-3.94-25.88-11.26
		c-8.69-10.55-5.79-24.63-3.13-39.68c2.66-15.06,4.71-29.13,17.13-39.69c8.61-7.32,17.75-11.26,29.85-11.26
		c25.75,0,33.78,16.75,33.27,33.21h-24.77c-0.63-7.6-3.92-11.26-12.37-11.26c-4.5,0-8.23,1.97-10.48,4.36
		c-2.77,2.96-4.78,6.33-8,24.63c-3.23,18.29-2.44,21.81-0.71,24.77c1.41,2.39,4.46,4.22,8.97,4.22c5.21,0,9-1.55,11.67-3.94
		c3.31-2.82,5.02-6.9,5.69-10.7l0.25-1.41h-14.78l3.62-20.55h39.26l-2.46,13.93C447.14,232.62,442.94,242.04,433.98,249.78z"/>
	<path class="st0" d="M509.84,219.39l-7.2,40.81h-24.63l7.2-40.81L465.42,160h26.88l9.41,36.03L523.68,160h26.88L509.84,219.39z"/>
	<path class="st0" d="M611.84,260.2l8.46-47.99l-18.58,24.77h-15.76l-9.85-24.77l-8.46,47.99h-24.63L560.69,160h24.2l14.72,44.19
		L629.93,160h24.21l-17.67,100.2H611.84z"/>
</g>
</svg>
